DataType=double
version=3
OpenSimVersion=4.5
endheader
time	ground_force_2_vx	ground_force_2_vy	ground_force_2_vz	ground_force_2_px	ground_force_2_py	ground_force_2_pz	ground_moment_2_mx	ground_moment_2_my	ground_moment_2_mz	ground_force_1_vx	ground_force_1_vy	ground_force_1_vz	ground_force_1_px	ground_force_1_py	ground_force_1_pz	ground_moment_1_mx	ground_moment_1_my	ground_moment_1_mz
2.76	103.8271672009213	667.8104421445141	-30.98901748159363	0.5850592754905202	0.01038340430110678	0.5574806279858343	0	-0.002676557814963038	0	-2.600014516484917	73.11517696005154	-5.101129992201766	1.025586762012726	0.01038340430110678	0.4094946474461119	0	-0.06284377944478803	0
2.765	106.7719976388458	655.3385074542348	-29.90367756373121	0.5796578778684294	0.01038340430110678	0.5570474855949193	0	-0.1014993341097436	0	-3.70930133649204	93.73005908606785	-5.855093015966894	1.016858260825326	0.01038340430110678	0.4116595738312732	0	-0.07995926526299135	0
2.77	109.2949538330026	641.0911647029404	-28.63268208619936	0.5742619044055207	0.01038340430110678	0.5566391113333622	0	-0.1888370822126657	0	-5.037205796611048	116.9296207691218	-6.594631930519338	1.008439913464054	0.01038340430110678	0.4136788630245387	0	-0.09913775654366652	0
2.775	111.3090640163312	625.012190759467	-27.17796571088331	0.5688752360465803	0.01038340430110678	0.5562630632786993	0	-0.2635126363790872	0	-6.617922831673532	142.6548743884669	-7.280904745980838	1.000423819274494	0.01038340430110678	0.4155217283504572	0	-0.1202215492985789	0
2.78	112.724063569189	607.062509637612	-25.54737330502864	0.5635032049504178	0.01038340430110678	0.5559252881818394	0	-0.3247780450747921	0	-8.489198207402618	170.7789870328245	-7.864569974395426	0.9928690409843806	0.01038340430110678	0.4171652214809687	0	-0.1428672922486719	0
2.785	113.4508788917472	587.2254877945495	-23.75446795038783	0.5581526934851326	0.01038340430110678	0.555629734527593	0	-0.3723123901731473	0	-10.6876826558353	201.1093306519704	-8.286470482243871	0.9858078276348576	0.01038340430110678	0.418594186174106	0	-0.1664600827196068	0
2.79	113.4069671386637	565.5137925353268	-21.81803989208131	0.552832132538942	0.01038340430110678	0.555378183907532	0	-0.406207544859652	0	-13.24321577566569	233.3926258558704	-8.479989663756307	0.9792510341945115	0.01038340430110678	0.41980063826877	0	-0.1900322511340372	0
2.795	112.5220800377869	541.9770524132474	-19.76144055506415	0.547551399516726	0.01038340430110678	0.5551703195615018	0	-0.4269560869059588	0	-16.17386500647005	267.3219947582668	-8.374954829586972	0.9731927700666352	0.01038340430110678	0.4207826104665308	0	-0.2122103807438432	0
2.8	110.7439792208017	516.7087099897088	-17.61177660993225	0.5423216917413587	0.01038340430110678	0.5550039564436955	0	-0.4354353272656898	0	-19.48277856804837	302.5462418808537	-7.902764677241521	0.9676144692381029	0.01038340430110678	0.4215429726172948	0	-0.231200282495489	0
2.805	108.0435704162971	489.8502775138305	-15.39896398587304	0.5371554946328965	0.01038340430110678	0.5548753241452385	0	-0.4328691286927845	0	-23.15690767487165	338.6817578412814	-7.002204546578351	0.9624884739521766	0.01038340430110678	0.4220885820650659	0	-0.2448076969156299	0
2.81	104.4188500928701	461.5917510956851	-13.15471505978324	0.5320667424324932	0.01038340430110678	0.5547793298664006	0	-0.4207555579982157	0	-27.16710710097248	375.3259956262669	-5.625191885706769	0.9577810776864557	0.01038340430110678	0.4224295887525311	0	-0.2504862199433313	0
2.815	99.89712183198471	432.1677672940663	-10.91161182049682	0.527071220448166	0.01038340430110678	0.5547097898276768	0	-0.4007639221527303	0	-31.46915831667601	412.0710127269066	-3.741700829190926	0.9534550054569636	0.01038340430110678	0.4225786351645722	0	-0.2454064061058737	0
2.82	94.53520221024533	401.8500566720156	-8.702422986439359	0.5221872014110179	0.01038340430110678	0.5546596976934062	0	-0.3746202966269105	0	-36.00553328876791	448.5164412166368	-1.343321472468713	0.9494714100248767	0.01038340430110678	0.4225500485315117	0	-0.226548792281729	0
2.825	88.41768284191541	370.9374165420979	-6.559714464537819	0.5174362733168882	0.01038340430110678	0.5546216625383551	0	-0.3440068283465187	0	-40.70776381881983	484.2812155759382	1.554916800889046	0.9457914143702839	0.01038340430110678	0.422359263052362	0	-0.1908247498762915	0
2.83	81.6537091534271	339.7445229696354	-4.515619503871427	0.5128442845354155	0.01038340430110678	0.5545886179244526	0	-0.3104890807821504	0	-45.49917544584576	519.0129053168066	4.914673625183898	0.9423771853295977	0.01038340430110678	0.4220224551918193	0	-0.1352196981760789	0
2.835	74.37316592839733	308.5912909953994	-2.601574601192434	0.5084421768081653	0.01038340430110678	0.554554752159621	0	-0.2754707118759393	0	-50.29785612201686	552.3945993962622	8.676366758919208	0.9391926619528517	0.01038340430110678	0.4215562049986283	0	-0.05694896225394253	0
2.84	66.72318873010619	277.794744780936	-0.8479358721164481	0.5042663071159846	0.01038340430110678	0.5545163917404241	0	-0.2401713459534599	0	-55.01985049045139	584.1501425008626	12.76294407674428	0.9362041037200414	0.01038340430110678	0.4209771469488699	0	0.04637953425214747	0
2.845	58.86517055653398	247.663649230171	0.7165838404629614	0.5003580258747045	0.01038340430110678	0.5544724869141121	0	-0.2056241653167347	0	-59.58240668547081	614.047379662263	17.08493428639175	0.9333804438447503	0.01038340430110678	0.4203017158455462	0	0.1766031023649703	0
2.85	50.97150674666874	218.4936721463141	2.065882173167704	0.4967626968455073	0.01038340430110678	0.5544245581702109	0	-0.1726848954916968	0	-63.90702628537733	641.898670836036	21.54624461410482	0.930693405225145	0.01038340430110678	0.419545993389596	0	0.3348551522373124	0
2.855	43.22080948854114	190.5608068269467	3.178267442740783	0.4935285312392469	0.01038340430110678	0.5543762441692914	0	-0.142030665698154	0	-67.92228274014333	667.5595059127527	26.0501749985963	0.9281175264499792	0.01038340430110678	0.4187255428152011	0	0.5214407019014093	0
2.86	35.78983648974101	164.1132296712969	4.039520902860119	0.4907054278903995	0.01038340430110678	0.5543327171671336	0	-0.1141297626283097	0	-71.566450582624	690.9267446416512	30.50510766361973	0.9256302843556882	0.01038340430110678	0.4178551638398776	0	0.7357476029221919	0
